<svg xmlns="http://www.w3.org/2000/svg" xmlns:xlink="http://www.w3.org/1999/xlink" version="1.0" x="0" y="0" width="2400" height="2580.462407130821" viewBox="139.4 92.09910430908204 61.2 65.80179138183594" preserveAspectRatio="xMidYMid meet" color-interpolation-filters="sRGB"><g><defs><linearGradient id="92" x1="0%" y1="0%" x2="100%" y2="0%"><stop offset="0%" stop-color="#fa71cd"></stop> <stop offset="100%" stop-color="#9b59b6"></stop></linearGradient><linearGradient id="93" x1="0%" y1="0%" x2="100%" y2="0%"><stop offset="0%" stop-color="#f9d423"></stop> <stop offset="100%" stop-color="#f83600"></stop></linearGradient><linearGradient id="94" x1="0%" y1="0%" x2="100%" y2="0%"><stop offset="0%" stop-color="#0064d2"></stop> <stop offset="100%" stop-color="#1cb0f6"></stop></linearGradient><linearGradient id="95" x1="0%" y1="0%" x2="100%" y2="0%"><stop offset="0%" stop-color="#f00978"></stop> <stop offset="100%" stop-color="#3f51b1"></stop></linearGradient><linearGradient id="96" x1="0%" y1="0%" x2="100%" y2="0%"><stop offset="0%" stop-color="#7873f5"></stop> <stop offset="100%" stop-color="#ec77ab"></stop></linearGradient><linearGradient id="97" x1="0%" y1="0%" x2="100%" y2="0%"><stop offset="0%" stop-color="#f9d423"></stop> <stop offset="100%" stop-color="#e14fad"></stop></linearGradient><linearGradient id="98" x1="0%" y1="0%" x2="100%" y2="0%"><stop offset="0%" stop-color="#009efd"></stop> <stop offset="100%" stop-color="#2af598"></stop></linearGradient><linearGradient id="99" x1="0%" y1="0%" x2="100%" y2="0%"><stop offset="0%" stop-color="#ffcc00"></stop> <stop offset="100%" stop-color="#00b140"></stop></linearGradient><linearGradient id="100" x1="0%" y1="0%" x2="100%" y2="0%"><stop offset="0%" stop-color="#d51007"></stop> <stop offset="100%" stop-color="#ff8177"></stop></linearGradient><linearGradient id="102" x1="0%" y1="0%" x2="100%" y2="0%"><stop offset="0%" stop-color="#a2b6df"></stop> <stop offset="100%" stop-color="#0c3483"></stop></linearGradient><linearGradient id="103" x1="0%" y1="0%" x2="100%" y2="0%"><stop offset="0%" stop-color="#7ac5d8"></stop> <stop offset="100%" stop-color="#eea2a2"></stop></linearGradient><linearGradient id="104" x1="0%" y1="0%" x2="100%" y2="0%"><stop offset="0%" stop-color="#00ecbc"></stop> <stop offset="100%" stop-color="#007adf"></stop></linearGradient><linearGradient id="105" x1="0%" y1="0%" x2="100%" y2="0%"><stop offset="0%" stop-color="#b88746"></stop> <stop offset="100%" stop-color="#fdf5a6"></stop></linearGradient></defs><g fill="#f757af" class="icon-text-wrapper icon-svg-group iconsvg" transform="translate(140,92.69910430908203)"><g class="iconsvg-imagesvg" transform="translate(0,0)"><g><rect fill="#f757af" fill-opacity="0" stroke-width="2" x="0" y="0" width="60" height="51.79379165084079" class="image-rect"></rect> <svg x="0" y="0" width="60" height="51.79379165084079" filtersec="colorsb9940628639" class="image-svg-svg primary" style="overflow: visible;"><svg xmlns="http://www.w3.org/2000/svg" xmlns:xlink="http://www.w3.org/1999/xlink" viewBox="0.00042724609375 -0.0009915828704833984 112.63601684570312 97.23090362548828"><defs><linearGradient id="a51566ed-3713-4ee5-bb4b-2a614abca0a6" x1="25.24" y1="90.49" x2="90.15" y2="25.59" gradientTransform="matrix(1, 0, 0, -1, 0, 100)" gradientUnits="userSpaceOnUse"><stop offset="0" stop-color="#ffb2c2"></stop><stop offset="1" stop-color="#f85e8a"></stop></linearGradient></defs><g id="e2efc689-eb1b-4001-a819-1986182a351d"><g id="a48bf052-ff9b-4e4b-bcbd-074908e8616b"><path d="M68,65.18c-4.33-3.06-7.38-1.45-10.49,2C53,72.24,47.09,77.89,40.61,71.92c-8-7.34,5.49-16.47,5.74-21.47S27.76,36.19,35.87,25.81c9.37-12,20.88,10.55,24.46,10.24,2.5-.22,9.82-18.31,20-11.74,9.23,6,1.06,15.35-4.07,23.3-1.74,2.68,2.48,6.61,7,9.74,8.18,5.72,12.24,6,17.32-1C107.36,47.07,118.25,24.56,89,7.59,62.58-7.8,13.65,3.84,8.9,34.3c-4.19,27,22.58,58.64,48,60,10.26.56,18.92-4.67,21.87-8.7C83.12,79.67,78.72,72.78,68,65.18Z" fill="url(#a51566ed-3713-4ee5-bb4b-2a614abca0a6)"></path><path d="M107.22,27.73C96,40.31,72.17,50,85,58.48c-.54-.35-1.1-.72-1.68-1.13-4.52-3.13-8.74-7.06-7-9.74,5.13-8,13.3-17.3,4.07-23.3-10.18-6.57-17.5,11.52-20,11.74-3.58.31-15.09-22.24-24.46-10.24a8.33,8.33,0,0,0-2,6C31.8,14.22,48.7,4.24,67.38,1.1,88-2.38,110.79,2.47,112.51,14.51,113.22,19.26,110.87,23.65,107.22,27.73Zm-73.33,4.4,0-.31c0,.16,0,.31,0,.46Z" fill="#ff8d27" opacity="0.5"></path><path d="M80.11,78.63c-1.76-6.35-9.91-9.32-37-.14a33.06,33.06,0,0,1-15.56,1.63C4.55,76.74-7.29,47,4.83,30.16A27.69,27.69,0,0,1,13.73,22c20.08-11.3,48.5,9.6,57.11,2.34l.06.22C65.68,28.05,62,35.9,60.33,36.05c-3.58.31-15.09-22.24-24.46-10.24C27.76,36.19,46.6,45.45,46.35,50.45S32.61,64.58,40.61,71.92c6.48,6,12.39.32,16.9-4.74,3.11-3.45,6.16-5.06,10.49-2C74.74,70,79,74.46,80.11,78.63Zm.16.66c0-.22-.1-.44-.16-.66C80.17,78.85,80.22,79.07,80.27,79.29Z" fill="#ff0098" opacity="0.6"></path><path d="M26.67,79.27a56.88,56.88,0,0,0,17.57,12c-4,2.25-8.34,2.67-13.19-.61C26.75,87.76,25.75,83.63,26.67,79.27ZM68,65.17c-4.33-3.06-7.38-1.45-10.49,2C53,72.24,47.09,77.89,40.61,71.92c-8-7.34,5.49-16.47,5.74-21.47V50.2c-1.14,3.68-5,8.19-10.74,14.13-4.13,4.24-7.87,9.75-8.94,14.92a56.88,56.88,0,0,0,17.57,12c12.07-6.8,21-30.35,31.28-19.33a26,26,0,0,0,2.33,2.25A43.25,43.25,0,0,0,68,65.17Z" fill="#6d59d1" opacity="0.5" style="isolation:isolate"></path><path d="M89.31,75.5c-1.86,1.88,8.37,15.86,12.55,11.69S91.18,73.62,89.31,75.5Zm-78.46-55c-.1,2.06-7.2,3.43-7-1.15S10.94,18.43,10.85,20.49Z" fill="#f757af"></path><path d="M94.37,71.91c-2.48,1.65,4.87,5.37,6.29,2.64S96,70.86,94.37,71.91ZM43.06,94c-2,3,2.59,4.87,2.87,1.21C46.09,93.07,44.19,92.26,43.06,94Z" fill="#ab8eeb"></path><path d="M12.6,17c-2.24,0-6.23-1.6-7.36-4.4-1-2.35,3.26-7.83,7.62,0C15.35,17.11,13.67,16.94,12.6,17Z" fill="#ffbd88"></path></g></g></svg></svg> </g></g> <g transform="translate(29.999973019777826,58.793792724609375)"><g fill-rule="" class="tp-name iconsvg-namesvg" transform="translate(0,0)"><g transform="scale(1)"><g><path d="" transform="translate(0, 0)"></path></g> </g></g> <g fill-rule="" class="tp-slogan iconsvg-slogansvg" fill="#f757af" transform="translate(-26.980220794677734,-4)"><rect width="0"></rect> <rect x="56.96044158935547" width="0"></rect> <g transform="translate(0,0)"><g transform="scale(1)"><path d="M6.60-0.64L6.60-4.09L2.89-4.09L2.89-0.78Q2.89 0 2.11 0.08L2.11 0.08Q1.33 0.16 1.31-0.62L1.31-0.62L1.12-8.69Q1.10-9.60 1.99-9.48L1.99-9.48Q2.89-9.36 2.89-8.45L2.89-8.45L2.89-5.29L6.60-5.59L6.60-8.69Q6.60-9.60 7.51-9.48L7.51-9.48Q8.40-9.36 8.39-8.45L8.39-8.45L8.20-0.79Q8.18-0.01 7.39 0.08L7.39 0.08Q6.60 0.16 6.60-0.64L6.60-0.64ZM15.19 0L11.14 0Q9.68 0 9.64-1.46L9.64-1.46L9.46-7.98L9.21-7.98Q8.95-7.98 8.89-8.23L8.89-8.23L8.83-8.51Q8.71-9.02 9.25-9.06L9.25-9.06L15.02-9.43Q15.76-9.49 15.76-8.74L15.76-8.74Q15.76-7.98 15.02-7.98L15.02-7.98L11.21-7.98L11.21-5.30L14.37-5.59Q15.16-5.66 15.16-4.87L15.16-4.87Q15.16-4.08 14.37-4.08L14.37-4.08L11.21-4.08L11.21-1.26L15.19-1.56Q15.99-1.61 15.99-0.82L15.99-0.82Q15.99 0 15.19 0L15.19 0ZM20.32 0.22L20.32 0.22Q18.36 0.22 17.15-1.10L17.15-1.10Q15.94-2.42 15.94-4.72L15.94-4.72Q15.94-6.96 17.16-8.27L17.16-8.27Q18.38-9.59 20.30-9.59L20.30-9.59Q21.49-9.59 22.36-9.20L22.36-9.20Q22.82-8.99 23.16-8.72L23.16-8.72Q23.40-8.53 23.47-8.26Q23.54-7.98 23.50-7.67L23.50-7.67L23.32-6.52Q23.27-6.12 22.86-6.12L22.86-6.12Q22.49-6.12 22.39-6.50L22.39-6.50Q22.27-7.09 22.04-7.49L22.04-7.49Q21.76-7.96 21.31-8.14L21.31-8.14Q20.84-8.30 20.22-8.30L20.22-8.30Q19.57-8.30 18.97-7.96L18.97-7.96Q18.37-7.61 17.99-6.83L17.99-6.83Q17.60-6.02 17.60-4.72L17.60-4.72Q17.60-3.54 18.01-2.76L18.01-2.76Q18.43-1.94 19.08-1.56L19.08-1.56Q19.73-1.16 20.46-1.16L20.46-1.16Q21.35-1.16 22.07-1.60L22.07-1.60Q22.30-1.73 22.48-1.87Q22.67-2.00 22.82-2.16L22.82-2.16Q23.03-2.34 23.20-2.35Q23.36-2.35 23.53-2.15L23.53-2.15Q23.70-1.94 23.72-1.72Q23.75-1.50 23.58-1.30L23.58-1.30Q23.48-1.16 23.36-1.04Q23.23-0.92 23.10-0.79L23.10-0.79Q22.58-0.35 21.88-0.07L21.88-0.07Q21.18 0.22 20.32 0.22ZM31.80-0.76L31.52-6.48L29.16-1.62L29.32-1.30Q29.49-0.97 29.14-0.83L29.14-0.83L28.73-0.66Q27.98-0.34 27.64-1.08L27.64-1.08L25.38-6.05L24.60-0.44Q24.51 0.16 23.92 0.08L23.92 0.08Q23.31-0.01 23.36-0.61L23.36-0.61L23.93-8.57L23.74-8.96Q23.52-9.36 23.98-9.42L23.98-9.42L24.47-9.48Q25.40-9.61 25.79-8.75L25.79-8.75L28.52-3L30.52-8.63Q30.87-9.60 31.90-9.48L31.90-9.48L32.49-9.41Q32.92-9.35 32.73-8.98L32.73-8.98L32.54-8.58L33.56-0.91Q33.68 0 32.76 0.08L32.76 0.08Q31.85 0.16 31.80-0.76L31.80-0.76ZM34.08-0.59L34.08-8.66Q34.08-9.60 35.00-9.48L35.00-9.48Q35.93-9.36 35.89-8.42L35.89-8.42L35.59-0.74Q35.57 0 34.82 0.08L34.82 0.08Q34.08 0.16 34.08-0.59L34.08-0.59ZM40.08 0.22L40.08 0.22Q39.11 0.22 38.37-0.11L38.37-0.11Q37.65-0.41 37.17-0.96L37.17-0.96Q36.87-1.30 36.66-1.70L36.66-1.70Q36.44-2.17 36.90-2.50L36.90-2.50Q37.13-2.64 37.29-2.59Q37.44-2.54 37.60-2.32L37.60-2.32Q37.88-1.88 38.37-1.52L38.37-1.52Q39.08-1.03 40.08-1.03L40.08-1.03Q40.95-1.03 41.43-1.48L41.43-1.48Q41.91-1.92 41.91-2.50L41.91-2.50Q41.91-3.44 40.32-3.98L40.32-3.98L38.97-4.45Q37.77-4.87 37.31-5.45L37.31-5.45Q36.83-6.04 36.83-6.94L36.83-6.94Q36.83-7.60 37.18-8.22L37.18-8.22Q37.53-8.82 38.24-9.20L38.24-9.20Q38.94-9.59 40.00-9.59L40.00-9.59Q41.19-9.59 42.05-9.20L42.05-9.20Q42.52-8.99 42.84-8.74L42.84-8.74Q43.10-8.54 43.17-8.26Q43.24-7.97 43.18-7.66L43.18-7.66L43.02-6.76Q42.95-6.36 42.56-6.36L42.56-6.36Q42.17-6.36 42.10-6.76L42.10-6.76Q41.99-7.28 41.78-7.63L41.78-7.63Q41.46-8.09 41.02-8.27L41.02-8.27Q40.55-8.45 39.92-8.45L39.92-8.45Q39.39-8.45 39.04-8.24L39.04-8.24Q38.68-8.04 38.52-7.72L38.52-7.72Q38.36-7.36 38.36-7.02L38.36-7.02Q38.36-6.62 38.75-6.30L38.75-6.30Q39.14-5.99 39.74-5.78L39.74-5.78L41.18-5.32Q42.34-4.96 42.93-4.34L42.93-4.34Q43.53-3.71 43.53-2.68L43.53-2.68Q43.53-1.82 43.16-1.19L43.16-1.19Q42.78-0.54 42.03-0.16L42.03-0.16Q41.27 0.22 40.08 0.22ZM44.24-0.59L44.24-8.66Q44.24-9.60 45.17-9.48L45.17-9.48Q46.09-9.36 46.05-8.42L46.05-8.42L45.75-0.74Q45.73 0 44.99 0.08L44.99 0.08Q44.24 0.16 44.24-0.59L44.24-0.59ZM50.89 0.22L50.89 0.22Q49.53 0.22 48.58-0.46L48.58-0.46Q47.63-1.12 47.16-2.24L47.16-2.24Q46.68-3.35 46.68-4.70L46.68-4.70Q46.68-6.90 47.83-8.24L47.83-8.24Q48.96-9.59 50.89-9.59L50.89-9.59Q52.27-9.59 53.22-8.92L53.22-8.92Q54.15-8.24 54.61-7.14L54.61-7.14Q55.08-6.02 55.08-4.70L55.08-4.70Q55.08-2.45 53.95-1.13L53.95-1.13Q52.83 0.22 50.89 0.22ZM51.00-1.13L51.00-1.13Q52.05-1.13 52.75-2.00Q53.46-2.87 53.46-4.39L53.46-4.39Q53.46-5.46 53.16-6.33Q52.85-7.20 52.23-7.72Q51.61-8.23 50.71-8.23L50.71-8.23Q50.14-8.23 49.58-7.87Q49.02-7.51 48.66-6.80Q48.30-6.08 48.30-5.00L48.30-5.00Q48.30-4.06 48.61-3.16Q48.91-2.27 49.51-1.70Q50.10-1.13 51.00-1.13Z" transform="translate(-1.116, 9.588000000000001)"></path></g></g></g></g></g><defs v-gra="od"></defs></g></svg>